<svg width="26" height="15" viewBox="0 0 26 15" fill="none" xmlns="http://www.w3.org/2000/svg">
<path d="M12.7606 12.3717L0.335555 6.67726C-0.111852 6.47197 -0.111852 5.83661 0.335555 5.63132L12.2812 0.156809C12.7378 -0.0522697 13.2627 -0.0522697 13.7193 0.156809L25.6644 5.63186C26.1119 5.83715 26.1119 6.47251 25.6644 6.6778L13.2394 12.3717C13.0877 12.4416 12.9123 12.4416 12.7606 12.3717Z" fill="#5E35B1"/>
<path d="M20.0413 7.04127C20.0413 5.84475 16.8889 4.87465 12.9998 4.87465C9.11069 4.87465 5.95825 5.84475 5.95825 7.04127C5.95825 7.68909 5.95825 10.7267 5.95825 11.3745H20.0413C20.0413 10.7267 20.0413 7.68909 20.0413 7.04127Z" fill="#7E57C2"/>
<path d="M12.9998 13.5411C16.8887 13.5411 20.0413 12.5711 20.0413 11.3745C20.0413 10.1779 16.8887 9.20786 12.9998 9.20786C9.11085 9.20786 5.95825 10.1779 5.95825 11.3745C5.95825 12.5711 9.11085 13.5411 12.9998 13.5411Z" fill="#7E57C2"/>
<path d="M13 12.7286C16.2906 12.7286 18.9582 12.0011 18.9582 11.1037C18.9582 10.2062 16.2906 9.4787 13 9.4787C9.70933 9.4787 7.04175 10.2062 7.04175 11.1037C7.04175 12.0011 9.70933 12.7286 13 12.7286Z" fill="#311B92"/>
<path d="M23.8329 14.6244C23.5334 14.6244 23.2913 14.3817 23.2913 14.0828V4.87461C23.2913 4.57562 23.5334 4.33295 23.8329 4.33295C24.1325 4.33295 24.3746 4.57562 24.3746 4.87461V14.0828C24.3746 14.3817 24.1325 14.6244 23.8329 14.6244Z" fill="#FF9800"/>
<path d="M23.8328 13.5411C24.4311 13.5411 24.9161 13.0561 24.9161 12.4578C24.9161 11.8595 24.4311 11.3745 23.8328 11.3745C23.2345 11.3745 22.7495 11.8595 22.7495 12.4578C22.7495 13.0561 23.2345 13.5411 23.8328 13.5411Z" fill="#FFC107"/>
</svg>
