<svg width="20" height="20" viewBox="0 0 20 20" fill="none" xmlns="http://www.w3.org/2000/svg">
<path d="M12.6952 10L19.4476 3.24758C19.8013 2.8937 20 2.41384 20 1.9135C20 1.41316 19.8013 0.933293 19.4476 0.579415L19.4206 0.552413C19.0667 0.1987 18.5868 0 18.0865 0C17.5862 0 17.1063 0.1987 16.7524 0.552413L10 7.30483L3.24758 0.552413C2.8937 0.1987 2.41384 0 1.9135 0C1.41316 0 0.933293 0.1987 0.579415 0.552413L0.552413 0.579415C0.1987 0.933293 0 1.41316 0 1.9135C0 2.41384 0.1987 2.8937 0.552413 3.24758L7.30483 10L0.552413 16.7524C0.1987 17.1063 0 17.5862 0 18.0865C0 18.5868 0.1987 19.0667 0.552413 19.4206L0.579415 19.4476C0.933293 19.8013 1.41316 20 1.9135 20C2.41384 20 2.8937 19.8013 3.24758 19.4476L10 12.6952L16.7524 19.4476C17.1063 19.8013 17.5862 20 18.0865 20C18.5868 20 19.0667 19.8013 19.4206 19.4476L19.4476 19.4206C19.8013 19.0667 20 18.5868 20 18.0865C20 17.5862 19.8013 17.1063 19.4476 16.7524L12.6952 10Z" fill="#FF6A61"/>
</svg>
