<svg width="116" height="79" viewBox="0 0 116 79" fill="none" xmlns="http://www.w3.org/2000/svg">
<path d="M115.158 78.6564C116.551 73.6072 115.549 66.3381 114.2 63.6829C111.458 58.329 106.06 57.3714 101.446 53.541C92.6974 46.2718 93.6114 29.949 92.1315 24.6821C86.9517 6.35695 64.3608 8.66391 56.0035 20.634C54.6106 22.6363 50.1273 29.5137 41.7699 32.0818C32.2809 34.9546 23.8801 31.2113 14.8263 36.0864C12.0841 37.5663 9.21123 39.9168 7.16542 42.2238C4.24907 45.4883 2.11621 49.4058 0.98449 53.628C-1.27895 62.0724 0.462158 71.3438 5.16315 78.6564H115.158Z" fill="#EFDEC9"/>
<path d="M91.1738 24.0292H55.5247V71.4309H91.1738V24.0292Z" fill="#DBCAC1"/>
<path opacity="0.5" d="M91.1304 39.9168V39.5251H79.9002V24.0292H79.5085V39.5251H67.3207V24.0292H66.929V39.5251H55.4812V39.9168H66.929V56.8056H55.4812V57.1973H66.929V71.4309H67.3207V57.1973H79.5085V71.4309H79.9002V57.1973H91.1304V56.8056H79.9002V39.9168H91.1304ZM79.552 56.8056H67.3643V39.9168H79.552V56.8056Z" fill="white"/>
<path d="M60.8786 21.8963L51.3025 21.6352C50.6931 19.1106 50.0402 16.1072 50.1272 15.3237C50.2143 14.8013 50.3884 14.5402 50.606 14.4531C51.1284 14.2355 51.5637 13.8437 51.8248 13.4084C52.4342 12.3638 54.0012 11.0579 57.7881 11.4932C60.1821 11.7544 61.9232 13.4084 62.0103 14.0614C62.0974 14.7143 61.8362 15.1931 61.8362 15.1931C61.8362 15.1931 62.6197 15.3237 62.2715 16.7165C62.1844 17.413 61.5315 19.7635 60.8786 21.8963Z" fill="#77434E"/>
<path d="M58.4845 21.6787H54.0447V28.1208H58.4845V21.6787Z" fill="#F8AD9C"/>
<path d="M51.9553 21.9399C51.9553 21.9399 51.1283 21.8093 50.3884 21.1564C49.6484 20.5035 49.8225 19.4153 50.606 19.1541C51.3895 18.9365 52.0424 19.72 52.0424 19.72L52.3906 15.8895C52.4341 15.3237 52.913 14.9319 53.5223 14.9319L59.3551 15.106C59.9644 15.106 60.3997 15.5848 60.3997 16.1507L60.3562 19.8505C60.3997 19.8505 61.7055 18.5447 62.3149 19.6764C63.229 21.374 60.3997 22.2881 60.3997 22.2881C60.3997 22.2881 58.8327 25.6397 56.3952 25.5962C53.6094 25.5091 51.9553 21.9399 51.9553 21.9399Z" fill="#F8AD9C"/>
<path d="M54.0022 17.977C54.7713 17.9636 55.3931 17.8554 55.391 17.7353C55.389 17.6151 54.7638 17.5285 53.9947 17.5418C53.2255 17.5551 52.6037 17.6633 52.6058 17.7835C52.6079 17.9037 53.2331 17.9903 54.0022 17.977Z" fill="#4D1E33"/>
<path d="M59.9342 17.9147C59.9393 17.7947 59.3398 17.6719 58.5952 17.6405C57.8507 17.6091 57.243 17.681 57.2379 17.8011C57.2329 17.9212 57.8323 18.044 58.5769 18.0754C59.3215 18.1068 59.9292 18.0348 59.9342 17.9147Z" fill="#4D1E33"/>
<path d="M56.0905 25.5527C55.3941 25.5092 54.6976 25.2915 54.0882 24.8998C54.0012 24.8562 54.0012 24.7692 54.0447 24.6821C54.0882 24.6386 54.1753 24.5951 54.2623 24.6386C55.4811 25.4221 57.0481 25.4656 58.2669 24.6821C58.3539 24.6386 58.441 24.6386 58.4845 24.7257C58.5281 24.8127 58.5281 24.8998 58.441 24.9433C57.701 25.3786 56.9175 25.5962 56.0905 25.5527Z" fill="#D08487"/>
<path d="M51.5637 20.4599C51.4331 19.9811 50.7802 19.8506 50.7802 19.8506C50.7802 19.8506 50.7366 19.8506 50.7366 19.8941C50.7366 19.8941 50.7366 19.9376 50.7802 19.9376C50.7802 19.9376 51.3896 20.0247 51.5201 20.4599C51.5201 20.5035 51.5637 20.5905 51.5637 20.6341C51.4331 20.6776 51.0849 20.8517 50.9543 20.7646C50.7802 20.6776 50.7802 20.547 50.7802 20.547C50.7802 20.547 50.7802 20.5035 50.7366 20.5035C50.7366 20.5035 50.6931 20.5035 50.6931 20.547C50.6931 20.547 50.6931 20.7646 50.9108 20.8517C50.9543 20.8517 50.9978 20.8952 51.0413 20.8952C51.2154 20.8952 51.4766 20.7646 51.5637 20.7646C51.6072 21.1129 51.5201 21.4176 51.5201 21.4176C51.5201 21.4176 51.5201 21.4611 51.5637 21.4611C51.5637 21.4611 51.6072 21.4611 51.6072 21.4176C51.5637 21.374 51.6943 20.9387 51.5637 20.4599Z" fill="#D08487"/>
<path d="M61.0527 20.4599C61.1833 19.9811 61.8362 19.8506 61.8362 19.8506C61.8362 19.8506 61.8797 19.8506 61.8797 19.8941C61.8797 19.8941 61.8798 19.9376 61.8362 19.9376C61.8362 19.9376 61.2268 20.0247 61.0962 20.4599C61.0962 20.5035 61.0527 20.5905 61.0527 20.6341C61.1833 20.6776 61.5315 20.8517 61.6621 20.7646C61.8362 20.6776 61.8362 20.547 61.8362 20.547C61.8362 20.547 61.8362 20.5035 61.8797 20.5035C61.8797 20.5035 61.9233 20.5035 61.9233 20.547C61.9233 20.547 61.9233 20.7646 61.7056 20.8517C61.6621 20.8517 61.6186 20.8952 61.5751 20.8952C61.4009 20.8952 61.1398 20.7646 61.0527 20.7646C61.0092 21.1129 61.0962 21.4176 61.0962 21.4176C61.0962 21.4176 61.0963 21.4611 61.0527 21.4611C61.0527 21.4611 61.0092 21.4611 61.0092 21.4176C61.0527 21.374 60.9221 20.9387 61.0527 20.4599Z" fill="#D08487"/>
<path d="M60.8351 13.8002C62.0975 13.8437 63.0115 15.019 62.7068 16.2813C62.7068 16.3248 62.6633 16.4119 62.5763 16.4119C62.141 16.6295 61.8798 17.0212 61.8798 17.5L61.8363 18.6318C61.8363 18.6318 60.5305 18.24 60.4434 17.5436C60.3563 16.8471 60.3563 16.8471 60.3563 16.8471C60.3563 16.8471 58.0929 17.1518 56.4388 16.5424C54.7848 15.933 54.0013 15.1931 54.0013 15.1931C53.7401 15.7589 53.1743 16.1942 52.4778 16.2377H52.3472L51.7814 17.9788H51.2155C51.2155 17.9788 51.1285 17.3695 50.9979 16.6295C50.7802 14.9754 52.0861 13.539 53.7401 13.5826L60.8351 13.8002Z" fill="#77434E"/>
<path d="M58.6588 20.0682C58.6828 20.0682 58.7023 20.0487 58.7023 20.0247C58.7023 20.0006 58.6828 19.9811 58.6588 19.9811C58.6347 19.9811 58.6152 20.0006 58.6152 20.0247C58.6152 20.0487 58.6347 20.0682 58.6588 20.0682Z" fill="#CF7492"/>
<path d="M58.3541 20.2423C58.3781 20.2423 58.3976 20.2228 58.3976 20.1988C58.3976 20.1747 58.3781 20.1552 58.3541 20.1552C58.33 20.1552 58.3105 20.1747 58.3105 20.1988C58.3105 20.2228 58.33 20.2423 58.3541 20.2423Z" fill="#CF7492"/>
<path d="M58.5716 20.3729C58.5956 20.3729 58.6151 20.3534 58.6151 20.3294C58.6151 20.3053 58.5956 20.2858 58.5716 20.2858C58.5476 20.2858 58.5281 20.3053 58.5281 20.3294C58.5281 20.3534 58.5476 20.3729 58.5716 20.3729Z" fill="#CF7492"/>
<path d="M59.0504 20.2858C59.0744 20.2858 59.0939 20.2663 59.0939 20.2423C59.0939 20.2182 59.0744 20.1988 59.0504 20.1988C59.0263 20.1988 59.0068 20.2182 59.0068 20.2423C59.0068 20.2663 59.0263 20.2858 59.0504 20.2858Z" fill="#CF7492"/>
<path d="M58.9197 20.6776C58.9438 20.6776 58.9633 20.6581 58.9633 20.634C58.9633 20.61 58.9438 20.5905 58.9197 20.5905C58.8957 20.5905 58.8762 20.61 58.8762 20.634C58.8762 20.6581 58.8957 20.6776 58.9197 20.6776Z" fill="#CF7492"/>
<path d="M58.6588 21.0258C58.6828 21.0258 58.7023 21.0063 58.7023 20.9823C58.7023 20.9582 58.6828 20.9387 58.6588 20.9387C58.6347 20.9387 58.6152 20.9582 58.6152 20.9823C58.6152 21.0063 58.6347 21.0258 58.6588 21.0258Z" fill="#CF7492"/>
<path d="M58.3541 20.6776C58.3781 20.6776 58.3976 20.6581 58.3976 20.634C58.3976 20.61 58.3781 20.5905 58.3541 20.5905C58.33 20.5905 58.3105 20.61 58.3105 20.634C58.3105 20.6581 58.33 20.6776 58.3541 20.6776Z" fill="#CF7492"/>
<path d="M53.5223 20.0682C53.5463 20.0682 53.5658 20.0487 53.5658 20.0246C53.5658 20.0006 53.5463 19.9811 53.5223 19.9811C53.4983 19.9811 53.4788 20.0006 53.4788 20.0246C53.4788 20.0487 53.4983 20.0682 53.5223 20.0682Z" fill="#CF7492"/>
<path d="M53.827 20.2423C53.851 20.2423 53.8705 20.2228 53.8705 20.1988C53.8705 20.1747 53.851 20.1552 53.827 20.1552C53.8029 20.1552 53.7834 20.1747 53.7834 20.1988C53.7834 20.2228 53.8029 20.2423 53.827 20.2423Z" fill="#CF7492"/>
<path d="M53.6094 20.3729C53.6335 20.3729 53.653 20.3534 53.653 20.3293C53.653 20.3053 53.6335 20.2858 53.6094 20.2858C53.5854 20.2858 53.5659 20.3053 53.5659 20.3293C53.5659 20.3534 53.5854 20.3729 53.6094 20.3729Z" fill="#CF7492"/>
<path d="M53.1307 20.2858C53.1547 20.2858 53.1742 20.2663 53.1742 20.2423C53.1742 20.2182 53.1547 20.1988 53.1307 20.1988C53.1066 20.1988 53.0872 20.2182 53.0872 20.2423C53.0872 20.2663 53.1066 20.2858 53.1307 20.2858Z" fill="#CF7492"/>
<path d="M53.2613 20.6776C53.2853 20.6776 53.3048 20.6581 53.3048 20.634C53.3048 20.61 53.2853 20.5905 53.2613 20.5905C53.2373 20.5905 53.2178 20.61 53.2178 20.634C53.2178 20.6581 53.2373 20.6776 53.2613 20.6776Z" fill="#CF7492"/>
<path d="M53.5223 21.0258C53.5463 21.0258 53.5658 21.0063 53.5658 20.9822C53.5658 20.9582 53.5463 20.9387 53.5223 20.9387C53.4983 20.9387 53.4788 20.9582 53.4788 20.9822C53.4788 21.0063 53.4983 21.0258 53.5223 21.0258Z" fill="#CF7492"/>
<path d="M53.827 20.6776C53.851 20.6776 53.8705 20.6581 53.8705 20.634C53.8705 20.61 53.851 20.5905 53.827 20.5905C53.8029 20.5905 53.7834 20.61 53.7834 20.634C53.7834 20.6581 53.8029 20.6776 53.827 20.6776Z" fill="#CF7492"/>
<path d="M50.6932 16.0636C50.432 15.846 50.2144 15.4107 50.2144 15.019C50.2144 14.7578 50.3014 14.4966 50.4755 14.3661L50.5626 14.279C50.9543 13.9308 51.6072 13.452 51.8249 13.0167C52.1296 12.4073 53.0872 11.5803 54.306 11.1885C55.1765 10.9274 56.4823 10.7968 57.9188 11.5803L57.8317 11.7109C56.3953 10.9274 55.133 11.058 54.306 11.3191C53.1307 11.6673 52.2166 12.4508 51.9119 13.0602C51.6943 13.539 51.0414 14.0614 50.6061 14.4096L50.5191 14.4966C50.3014 14.6708 50.3014 14.8884 50.3014 15.0625C50.3014 15.4543 50.5191 15.846 50.7367 15.9766L50.6932 16.0636Z" fill="#74444A"/>
<path d="M53.2612 19.4152C53.2612 19.4152 53.5224 19.7635 54.0883 19.7199C54.6541 19.6764 54.6976 19.5023 54.8718 19.5023C55.0459 19.5023 54.8282 19.1541 54.48 19.1106C53.6095 18.8929 53.2612 19.4152 53.2612 19.4152Z" fill="white"/>
<path d="M54.9152 19.4153C55.0023 19.4153 55.0458 19.3282 54.9588 19.2847C54.8282 19.1541 54.567 19.0235 54.1753 19.0235C53.4353 18.98 53.1306 19.4153 53.1306 19.4153L53.2177 19.4588C53.2177 19.4588 53.5659 19.1541 54.0012 19.1106C54.48 19.0235 54.9152 19.4153 54.9152 19.4153Z" fill="#2B1D30"/>
<path d="M53.6094 19.2847C53.6094 19.5023 53.827 19.6764 54.0882 19.6764C54.3493 19.6764 54.567 19.5023 54.567 19.3282C54.567 19.1106 54.3493 19.067 54.0882 19.067C53.827 19.0235 53.6094 19.067 53.6094 19.2847Z" fill="#2B1D30"/>
<path d="M54.4008 19.3036C54.4019 19.2556 54.3638 19.2157 54.3157 19.2147C54.2676 19.2136 54.2278 19.2517 54.2268 19.2998C54.2257 19.3479 54.2638 19.3877 54.3119 19.3888C54.36 19.3898 54.3998 19.3517 54.4008 19.3036Z" fill="white"/>
<path d="M59.1374 19.4152C59.1374 19.4152 58.8762 19.7635 58.3104 19.7199C57.7445 19.7199 57.701 19.5023 57.5269 19.5023C57.3527 19.5023 57.5704 19.1541 57.9186 19.1106C58.7892 18.8929 59.1374 19.4152 59.1374 19.4152Z" fill="white"/>
<path d="M57.4833 19.4153C57.3963 19.4153 57.3527 19.3282 57.4398 19.2847C57.5704 19.1541 57.8315 19.0235 58.2233 19.0235C58.9633 18.98 59.2679 19.4153 59.2679 19.4153L59.1809 19.4588C59.1809 19.4588 58.8327 19.1541 58.3974 19.1106C57.9186 19.0235 57.4833 19.4153 57.4833 19.4153Z" fill="#2B1D30"/>
<path d="M58.7457 19.2847C58.7457 19.5023 58.5281 19.6764 58.2669 19.6764C58.0057 19.6764 57.7881 19.5023 57.7881 19.3282C57.7881 19.1541 58.0057 19.067 58.2669 19.067C58.5281 19.0235 58.7457 19.067 58.7457 19.2847Z" fill="#2B1D30"/>
<path d="M58.0974 19.4167C58.1455 19.4156 58.1836 19.3758 58.1826 19.3278C58.1815 19.2797 58.1417 19.2416 58.0936 19.2426C58.0456 19.2437 58.0074 19.2835 58.0085 19.3316C58.0096 19.3796 58.0494 19.4178 58.0974 19.4167Z" fill="white"/>
<path d="M54.0883 26.6409L51.8684 29.6008L52.6954 31.2548L53.4354 32.0818L58.7458 32.2124L59.5293 31.0372L60.5304 29.6008L58.4846 26.6409H54.0883Z" fill="#F8AD9C"/>
<path d="M58.3539 20.5035C58.2669 20.4599 58.1798 20.4599 58.0928 20.4164C56.9175 20.0246 55.6552 20.0246 54.48 20.4164C54.3929 20.4599 54.3058 20.4599 54.2188 20.5035C53.827 20.634 53.4788 20.7211 53.1741 20.7646C52.8259 20.8081 52.5647 21.1564 52.6083 21.5046L52.7824 23.1151C52.7824 23.2457 52.8259 23.3763 52.913 23.4633C53.0871 23.768 53.5223 24.3339 54.2623 24.8562C54.2623 24.8562 54.2623 24.8562 54.3058 24.8997C55.5246 25.7703 57.1787 25.7703 58.3974 24.8997C58.3974 24.8997 58.3974 24.8997 58.441 24.8562C59.1374 24.3339 59.6162 23.768 59.7903 23.4633C59.8774 23.3327 59.9209 23.2022 59.9644 23.0281L60.0515 21.4611C60.095 21.1128 59.8339 20.7646 59.4421 20.7211C59.0939 20.7211 58.7457 20.6776 58.3539 20.5035Z" fill="white"/>
<path d="M59.6597 21.287L60.4867 19.2411" stroke="white" stroke-width="0.0823796" stroke-miterlimit="10" stroke-linecap="round" stroke-linejoin="round"/>
<path d="M52.9564 21.287L51.8682 19.6329" stroke="white" stroke-width="0.0823796" stroke-miterlimit="10" stroke-linecap="round" stroke-linejoin="round"/>
<path d="M59.7468 23.2457L60.4868 21.8528" stroke="white" stroke-width="0.0823796" stroke-miterlimit="10" stroke-linecap="round" stroke-linejoin="round"/>
<path d="M52.9565 23.2457L51.9553 22.0704" stroke="white" stroke-width="0.0823796" stroke-miterlimit="10" stroke-linecap="round" stroke-linejoin="round"/>
<path d="M69.0619 13.2343V12.6685L57.1353 7.96748L42.2053 11.7544V12.5814L57.1353 8.6204L69.0619 13.2343Z" fill="#434FA1"/>
<path d="M61.8361 14.0179L69.0617 13.2344L57.1351 8.62041L42.2051 12.5814L49.0825 13.6696L61.8361 14.0179Z" fill="#5E6DB2"/>
<path d="M57.4398 11.145H56.5257H55.6116C53.6964 11.145 51.6941 12.2767 50.1707 13.8437V16.0201C50.1707 16.3683 50.5624 16.5425 50.8236 16.2813C52.2165 14.9755 53.914 14.3225 55.6116 14.279C55.8293 14.279 56.5257 14.2355 56.5257 14.2355C56.5257 14.2355 57.2221 14.279 57.4398 14.279C59.1374 14.3225 60.8349 14.9755 62.2278 16.2813C62.489 16.4989 62.8807 16.3248 62.8807 16.0201V13.8437C61.3573 12.2767 59.355 11.145 57.4398 11.145Z" fill="#434FA1"/>
<path d="M63.8384 10.6227C63.8384 10.6227 65.4054 12.8861 65.536 17.0648C65.7101 21.2434 65.7101 21.2434 65.7101 21.2434" stroke="#FBB325" stroke-width="0.164759" stroke-miterlimit="10"/>
<path d="M65.9278 21.8093L65.7973 21.7658C65.7102 21.7222 65.6231 21.7222 65.5361 21.7658L65.4055 21.8093C65.1879 21.8964 64.9702 21.7222 65.0138 21.5046L65.0573 21.374C65.0573 21.287 65.0573 21.1999 64.9702 21.1129L64.8832 21.0258C64.7091 20.8517 64.8396 20.547 65.0573 20.547H65.1879C65.2749 20.547 65.362 20.5035 65.4055 20.4164L65.449 20.2858C65.5796 20.0682 65.8843 20.0682 65.9714 20.3294L66.0149 20.4599C66.0584 20.547 66.1455 20.5905 66.2325 20.634L66.3631 20.6776C66.5808 20.7211 66.6678 21.0258 66.4937 21.1564L66.4066 21.2434C66.3196 21.287 66.3196 21.4175 66.3196 21.5046V21.6352C66.3631 21.7658 66.1019 21.9399 65.9278 21.8093Z" fill="#FBB325"/>
<path d="M88.8667 9.44742C88.8667 9.44742 87.8656 8.35923 86.4727 8.27217C85.0798 8.18512 82.7293 7.88043 82.0329 7.14046C81.2929 6.40048 81.4235 3.48413 85.2539 5.22524C89.1279 6.96635 88.8667 9.44742 88.8667 9.44742Z" fill="#DD9E91"/>
<path d="M81.4235 5.87815C81.5977 6.35696 83.1211 7.09693 84.1658 7.31457C85.2104 7.53221 85.6022 6.18285 85.6022 6.18285C85.6022 6.18285 85.6022 6.18285 85.994 6.66165C86.3857 7.14046 88.1703 9.70859 88.1703 9.70859L87.2127 19.3282C89.6067 19.8505 91.9137 20.547 94.1772 21.374L94.3513 15.1496C94.4383 11.5368 93.1325 8.01101 90.7385 5.31229L90.6949 5.26877C89.0844 3.52766 86.1681 1.04658 85.1669 0.176025C84.1658 -0.738056 80.5965 3.35355 80.64 4.00646C80.6836 4.65938 81.5106 5.26877 81.5106 5.26877C81.5106 5.26877 81.2059 5.44288 81.4235 5.87815Z" fill="#F8AD9C"/>
<path d="M81.4236 5.22524C81.4236 5.22524 82.9035 2.70063 84.0352 1.8736C84.6446 1.3948 84.9929 1.3948 84.9929 1.3948" stroke="#D08487" stroke-width="0.164759" stroke-miterlimit="10" stroke-linecap="round" stroke-linejoin="round"/>
<path d="M85.3411 2.78769C85.3411 2.78769 83.5565 4.70291 83.1647 5.44288C82.86 6.05227 83.1647 6.92282 83.1647 6.92282" stroke="#D08487" stroke-width="0.164759" stroke-miterlimit="10" stroke-linecap="round" stroke-linejoin="round"/>
<path d="M85.6892 5.96521L85.2104 5.44288L85.2975 4.44174L85.0363 5.52993L84.6446 5.61699L84.3834 4.83349V5.74757L83.8611 6.09579L84.7316 5.74757C84.7316 5.74757 85.1234 5.70404 85.2975 5.83463C85.4716 5.96521 85.6892 5.96521 85.6892 5.96521Z" fill="#D08487"/>
<path d="M22.3131 9.44742C22.3131 9.44742 23.3142 8.35923 24.7071 8.27217C26.1 8.14159 28.4505 7.88043 29.1469 7.14046C29.8869 6.40048 29.7563 3.48413 25.9259 5.22524C22.0954 6.96635 22.3131 9.44742 22.3131 9.44742Z" fill="#DD9E91"/>
<path d="M29.7997 5.87815C29.6256 6.35696 28.1022 7.09693 27.0575 7.31457C26.0128 7.53221 25.6211 6.18285 25.6211 6.18285C25.6211 6.18285 25.6211 6.18285 25.2293 6.66165C24.8376 7.14046 23.0529 9.70859 23.0529 9.70859L24.0106 19.3282C21.6165 19.8505 19.3096 20.547 17.0461 21.374L16.872 15.1496C16.785 11.5368 18.0908 8.01101 20.4848 5.3123L20.5283 5.26877C22.1389 3.48413 25.0552 1.00305 26.0999 0.1325C27.101 -0.781582 30.6703 3.31002 30.6268 3.96294C30.5832 4.61585 29.7562 5.22524 29.7562 5.22524C29.7562 5.22524 29.9738 5.44288 29.7997 5.87815Z" fill="#F8AD9C"/>
<path d="M29.7563 5.22524C29.7563 5.22524 28.2763 2.70063 27.1446 1.8736C26.5352 1.3948 26.187 1.3948 26.187 1.3948" stroke="#D08487" stroke-width="0.164759" stroke-miterlimit="10" stroke-linecap="round" stroke-linejoin="round"/>
<path d="M25.8823 2.78769C25.8823 2.78769 27.667 4.70291 28.0587 5.44288C28.3634 6.05227 28.0587 6.92282 28.0587 6.92282" stroke="#D08487" stroke-width="0.164759" stroke-miterlimit="10" stroke-linecap="round" stroke-linejoin="round"/>
<path d="M25.4905 5.96521L25.9693 5.44288L25.8822 4.44174L26.1434 5.52993L26.5351 5.61699L26.7963 4.83349V5.74757L27.3186 6.09579L26.4481 5.74757C26.4481 5.74757 26.0563 5.70404 25.8822 5.83463C25.7081 5.96521 25.4905 5.96521 25.4905 5.96521Z" fill="#D08487"/>
<path d="M59.7902 28.5561C58.7456 29.949 54.2622 30.036 52.7388 28.382L52.5646 28.6432L51.6941 29.0349V55.935L61.836 55.7609V29.3396L59.9644 28.5996L59.7902 28.5561Z" fill="#F07C74"/>
<path d="M97.3548 34.2147L96.0054 13.3214H84.9929L83.2083 30.2537L71.0641 31.5595L59.9645 28.6431L56.4388 40.7438H55.6553L52.5648 28.6431L40.7688 31.6465L28.0587 30.2972L26.2741 13.3649H15.2616L13.9122 34.2582C13.651 38.3063 16.3933 41.9626 20.3543 42.8332L39.0712 46.9248L36.329 78.7435H55.0894H57.0046H75.7215L72.9793 46.7507L90.8692 42.8332C94.8737 41.8756 97.616 38.2628 97.3548 34.2147Z" fill="#5269B0"/>
<path d="M61.662 29.209C60.0515 33.6924 58.5716 38.0887 56.874 42.6155H55.0023C53.5223 38.2192 52.1295 33.6924 50.7366 29.209" stroke="white" stroke-width="0.164759" stroke-miterlimit="10" stroke-linecap="round" stroke-linejoin="round"/>
<path d="M96.1359 15.4978H84.7751L84.8187 15.3672H96.1359V15.4978Z" fill="black"/>
<path d="M15.1309 15.4978H26.4916V15.3672H15.1309V15.4978Z" fill="black"/>
<path d="M72.9794 46.6636C71.7606 46.3589 70.5853 47.36 70.7595 48.6223C71.2383 52.5398 71.8912 59.6349 70.3677 62.1595C68.2784 65.7287 71.4559 69.3851 71.2818 71.4309C71.1512 73.4767 71.2818 78.6565 71.2818 78.6565H75.7216L72.9794 46.6636Z" fill="#455794"/>
<path d="M39.8113 78.6565L39.376 60.3313C39.376 59.4172 37.9832 59.3737 37.8961 60.2878L36.3291 78.6565H39.8113Z" fill="#455794"/>
<path d="M101.446 42.3979C101.446 42.3979 101.446 43.0073 101.142 43.5296C100.881 44.0955 100.141 44.5743 100.141 44.5743L100.881 45.4449C100.881 45.4449 101.142 45.1837 101.621 44.5743C102.099 43.9649 102.056 42.8332 102.056 42.8332L101.446 42.3979Z" fill="#EB008B"/>
<path d="M96.4841 28.5561L95.8312 28.0773C95.8312 28.0773 95.8312 28.6867 95.5265 29.209C95.2654 29.7749 94.5254 30.2537 94.5254 30.2537L95.2654 31.1242C95.2654 31.1242 95.5265 30.8631 96.0053 30.2537C96.4841 29.6443 96.4841 28.5561 96.4841 28.5561Z" fill="#009680"/>
<path d="M64.7526 24.6821C64.8396 24.5951 65.1008 24.3339 65.449 23.8551C65.9278 23.2457 65.8843 22.114 65.8843 22.114L65.2314 21.6352C65.2314 21.6352 65.2314 22.2446 64.9267 22.7669C64.6655 23.3328 63.9255 23.8116 63.9255 23.8116L64.622 24.5951L64.7526 24.6821C64.709 24.7257 64.709 24.7257 64.7526 24.6821Z" fill="white"/>
<path d="M94.1773 61.2454L94.9173 60.3749C94.9173 60.3749 94.1773 59.8961 93.9162 59.3302C93.655 58.7643 93.6115 58.1985 93.6115 58.1985L92.9585 58.6773C92.9585 58.6773 92.915 59.7655 93.3938 60.4184C93.9162 60.9842 94.1773 61.2454 94.1773 61.2454Z" fill="#F07C74"/>
<path d="M100.141 74.5213C99.8794 73.9555 99.8358 73.3896 99.8358 73.3896L99.1829 73.8684C99.1829 73.8684 99.1394 74.9566 99.6182 75.6095C100.097 76.2189 100.358 76.4801 100.358 76.4801L101.098 75.6095C101.185 75.566 100.402 75.0437 100.141 74.5213Z" fill="#8AD4EA"/>
<path d="M75.3297 21.4611C75.0686 20.8952 75.025 20.3294 75.025 20.3294L74.3721 20.8082C74.3721 20.8082 74.3286 21.8964 74.8074 22.5493C75.2862 23.1587 75.5474 23.4198 75.5474 23.4198L76.2873 22.5493C76.3309 22.5058 75.5909 22.0269 75.3297 21.4611Z" fill="#D2434A"/>
<path d="M7.9925 42.3979C7.9925 42.3979 7.9925 43.0073 8.29719 43.5296C8.55836 44.0955 9.29833 44.5743 9.29833 44.5743L8.55836 45.4449C8.55836 45.4449 8.29719 45.1837 7.81839 44.5743C7.33958 43.9649 7.38311 42.8332 7.38311 42.8332L7.9925 42.3979Z" fill="#EB008B"/>
<path d="M12.9547 28.5561L13.6077 28.0773C13.6077 28.0773 13.6077 28.6867 13.9124 29.209C14.1735 29.7749 14.9135 30.2537 14.9135 30.2537L14.1735 31.1242C14.1735 31.1242 13.9124 30.8631 13.4336 30.2537C12.9112 29.6443 12.9547 28.5561 12.9547 28.5561Z" fill="#009680"/>
<path d="M44.7299 24.6821C44.6429 24.5951 44.3817 24.3339 44.0335 23.8551C43.5547 23.2457 43.5982 22.114 43.5982 22.114L44.2511 21.6352C44.2511 21.6352 44.2511 22.2446 44.5558 22.7669C44.817 23.3328 45.5569 23.8116 45.5569 23.8116L44.8605 24.5951L44.7299 24.6821C44.7299 24.7257 44.7299 24.7257 44.7299 24.6821Z" fill="white"/>
<path d="M15.2617 61.2454L14.5217 60.3749C14.5217 60.3749 15.2617 59.8961 15.5229 59.3302C15.784 58.7643 15.8276 58.1985 15.8276 58.1985L16.4805 58.6773C16.4805 58.6773 16.524 59.7655 16.0452 60.4184C15.5229 60.9842 15.2617 61.2454 15.2617 61.2454Z" fill="#F07C74"/>
<path d="M9.29831 74.5213C9.55947 73.9555 9.603 73.3896 9.603 73.3896L10.2559 73.8684C10.2559 73.8684 10.2994 74.9566 9.82064 75.6095C9.34184 76.2189 9.08067 76.4801 9.08067 76.4801L8.3407 75.6095C8.25364 75.566 9.03714 75.0437 9.29831 74.5213Z" fill="#8AD4EA"/>
<path d="M34.1091 21.4611C34.3703 20.8952 34.4138 20.3294 34.4138 20.3294L35.0667 20.8082C35.0667 20.8082 35.1102 21.8964 34.6314 22.5493C34.1526 23.1587 33.8915 23.4198 33.8915 23.4198L33.1515 22.5493C33.108 22.5058 33.8479 22.0269 34.1091 21.4611Z" fill="#D2434A"/>
<path d="M115.811 78.6565H3.94434" stroke="#000425" stroke-width="0.164759" stroke-miterlimit="10" stroke-linecap="round" stroke-linejoin="round"/>
</svg>
