<svg width="20" height="20" viewBox="0 0 20 20" fill="none" xmlns="http://www.w3.org/2000/svg">
<path d="M0.572768 14.2857H12.2844C12.3596 14.2858 12.4341 14.271 12.5036 14.2422C12.5732 14.2135 12.6363 14.1713 12.6895 14.1181C12.7427 14.0649 12.7849 14.0017 12.8137 13.9322C12.8424 13.8627 12.8572 13.7882 12.8571 13.7129V12.0013C12.8572 11.9261 12.8424 11.8516 12.8137 11.7821C12.7849 11.7126 12.7427 11.6494 12.6895 11.5962C12.6363 11.543 12.5732 11.5008 12.5036 11.4721C12.4341 11.4433 12.3596 11.4285 12.2844 11.4286H0.572768C0.497535 11.4285 0.423028 11.4433 0.35351 11.4721C0.283992 11.5008 0.220827 11.543 0.167629 11.5962C0.114431 11.6494 0.0722434 11.7126 0.04348 11.7821C0.0147165 11.8516 -5.85331e-05 11.9261 1.74266e-07 12.0013V13.7129C-5.85331e-05 13.7882 0.0147165 13.8627 0.04348 13.9322C0.0722434 14.0017 0.114431 14.0649 0.167629 14.1181C0.220827 14.1713 0.283992 14.2135 0.35351 14.2422C0.423028 14.271 0.497535 14.2858 0.572768 14.2857ZM0.572768 2.85714H12.2844C12.3596 2.8572 12.4341 2.84243 12.5036 2.81366C12.5732 2.7849 12.6363 2.74271 12.6895 2.68951C12.7427 2.63632 12.7849 2.57315 12.8137 2.50363C12.8424 2.43412 12.8572 2.35961 12.8571 2.28438V0.572768C12.8572 0.497535 12.8424 0.423028 12.8137 0.35351C12.7849 0.283992 12.7427 0.220827 12.6895 0.167629C12.6363 0.114431 12.5732 0.0722434 12.5036 0.0434799C12.4341 0.0147164 12.3596 -5.85331e-05 12.2844 1.74267e-07H0.572768C0.497535 -5.85331e-05 0.423028 0.0147164 0.35351 0.0434799C0.283992 0.0722434 0.220827 0.114431 0.167629 0.167629C0.114431 0.220827 0.0722434 0.283992 0.04348 0.35351C0.0147165 0.423028 -5.85331e-05 0.497535 1.74266e-07 0.572768V2.28438C-5.85331e-05 2.35961 0.0147165 2.43412 0.04348 2.50363C0.0722434 2.57315 0.114431 2.63632 0.167629 2.68951C0.220827 2.74271 0.283992 2.7849 0.35351 2.81366C0.423028 2.84243 0.497535 2.8572 0.572768 2.85714ZM19.2857 5.71429H0.714286C0.524846 5.71429 0.343164 5.78954 0.20921 5.9235C0.0752551 6.05745 1.74266e-07 6.23913 1.74266e-07 6.42857V7.85714C1.74266e-07 8.04658 0.0752551 8.22826 0.20921 8.36222C0.343164 8.49617 0.524846 8.57143 0.714286 8.57143H19.2857C19.4752 8.57143 19.6568 8.49617 19.7908 8.36222C19.9247 8.22826 20 8.04658 20 7.85714V6.42857C20 6.23913 19.9247 6.05745 19.7908 5.9235C19.6568 5.78954 19.4752 5.71429 19.2857 5.71429ZM19.2857 17.1429H0.714286C0.524846 17.1429 0.343164 17.2181 0.20921 17.3521C0.0752551 17.486 1.74266e-07 17.6677 1.74266e-07 17.8571V19.2857C1.74266e-07 19.4752 0.0752551 19.6568 0.20921 19.7908C0.343164 19.9247 0.524846 20 0.714286 20H19.2857C19.4752 20 19.6568 19.9247 19.7908 19.7908C19.9247 19.6568 20 19.4752 20 19.2857V17.8571C20 17.6677 19.9247 17.486 19.7908 17.3521C19.6568 17.2181 19.4752 17.1429 19.2857 17.1429Z" fill="black"/>
</svg>
