<svg width="34" height="36" viewBox="0 0 34 36" fill="none" xmlns="http://www.w3.org/2000/svg">
<path d="M33.9707 6.67253V21.0014C33.9666 22.7698 33.2593 24.4647 32.0034 25.7151C30.7475 26.9656 29.0453 27.6698 27.2692 27.6739H15.8118L7.95223 34.3617C7.25255 34.9586 6.39563 35.3433 5.48309 35.47C4.57054 35.5967 3.64064 35.4602 2.80363 35.0766C1.96663 34.6931 1.25764 34.0787 0.760716 33.3062C0.263795 32.5336 -0.000211754 31.6354 1.27435e-07 30.718V6.67253C0.00407843 4.90413 0.711431 3.20928 1.96732 1.95883C3.22321 0.708378 4.92539 0.0040759 6.70148 1.52588e-05H27.2692C29.0453 0.0040759 30.7475 0.708378 32.0034 1.95883C33.2593 3.20928 33.9666 4.90413 33.9707 6.67253Z" fill="#FFE094"/>
<path d="M24.5671 13.099H9.40383C8.78954 13.099 8.20042 12.8561 7.76605 12.4236C7.33168 11.9911 7.08765 11.4045 7.08765 10.7929C7.08765 10.1812 7.33168 9.59463 7.76605 9.16215C8.20042 8.72966 8.78954 8.4867 9.40383 8.4867H24.5671C25.1814 8.4867 25.7705 8.72966 26.2049 9.16215C26.6393 9.59463 26.8833 10.1812 26.8833 10.7929C26.8833 11.4045 26.6393 11.9911 26.2049 12.4236C25.7705 12.8561 25.1814 13.099 24.5671 13.099ZM14.9009 19.6792H9.40383C8.78954 19.6792 8.20042 19.4363 7.76605 19.0038C7.33168 18.5713 7.08765 17.9847 7.08765 17.3731C7.08765 16.7615 7.33168 16.1749 7.76605 15.7424C8.20042 15.3099 8.78954 15.0669 9.40383 15.0669H14.9009C15.5152 15.0669 16.1043 15.3099 16.5387 15.7424C16.9731 16.1749 17.2171 16.7615 17.2171 17.3731C17.2171 17.9847 16.9731 18.5713 16.5387 19.0038C16.1043 19.4363 15.5152 19.6792 14.9009 19.6792Z" fill="#FFBD29"/>
</svg>
