<svg width="17" height="22" viewBox="0 0 17 22" fill="none" xmlns="http://www.w3.org/2000/svg">
<path d="M16.7 3.26739V20.3036C16.7 21.1204 16.0353 21.7826 15.2155 21.7826H1.48448C0.664733 21.7826 0 21.1204 0 20.3036V3.29426C0 2.47741 0.664733 1.81522 1.48448 1.81522H15.2155C16.0353 1.81522 16.7 2.45054 16.7 3.26739Z" fill="#B8BCE1"/>
<path d="M15.2155 1.81522H1.48448C0.664733 1.81522 0 2.47741 0 3.29426V4.80452C1.05537 10.0991 4.62626 18.785 16.7 19.1651V3.26739C16.7 2.45054 16.0353 1.81522 15.2155 1.81522Z" fill="#E2E7F7"/>
<path d="M6.16856 3.99348H6.17473C6.57408 3.99348 6.89755 3.66964 6.89755 3.27066V1.81522H5.44538V3.27066C5.44574 3.66964 5.76957 3.99348 6.16856 3.99348ZM2.53812 3.99348H2.5443C2.94364 3.99348 3.26712 3.66964 3.26712 3.27066V1.81522H1.81494V3.27066C1.8153 3.66964 2.13914 3.99348 2.53812 3.99348ZM13.4294 3.99348H13.4356C13.8349 3.99348 14.1584 3.66964 14.1584 3.27066V1.81522H12.7062V3.27066C12.7066 3.66964 13.0304 3.99348 13.4294 3.99348Z" fill="#B8BCE1"/>
<path d="M2.90758 3.63042H2.90141C2.50206 3.63042 2.17822 3.30658 2.17822 2.9076V0.722804C2.17822 0.32382 2.50206 -1.52588e-05 2.90104 -1.52588e-05H2.90721C3.30656 -1.52588e-05 3.6304 0.32382 3.6304 0.722804V2.90724C3.6304 3.30659 3.30656 3.63042 2.90758 3.63042ZM6.53801 3.63042H6.53184C6.13249 3.63042 5.80866 3.30658 5.80866 2.9076V0.722804C5.80866 0.32382 6.13249 -1.52588e-05 6.53148 -1.52588e-05H6.53765C6.937 -1.52588e-05 7.26083 0.32382 7.26083 0.722804V2.90724C7.26083 3.30659 6.937 3.63042 6.53801 3.63042Z" fill="#3A1A52"/>
<path d="M9.79887 3.99348H9.80504C10.2044 3.99348 10.5279 3.66964 10.5279 3.27066V1.81522H9.07568V3.27066C9.07605 3.66964 9.39988 3.99348 9.79887 3.99348Z" fill="#B8BCE1"/>
<path d="M10.1688 3.63042H10.1626C9.76329 3.63042 9.43945 3.30658 9.43945 2.9076V0.722804C9.43945 0.32382 9.76329 -1.52588e-05 10.1623 -1.52588e-05H10.1684C10.5678 -1.52588e-05 10.8916 0.32382 10.8916 0.722804V2.90724C10.8916 3.30659 10.5678 3.63042 10.1688 3.63042ZM13.7992 3.63042H13.7931C13.3937 3.63042 13.0699 3.30658 13.0699 2.9076V0.722804C13.0699 0.32382 13.3937 -1.52588e-05 13.7927 -1.52588e-05H13.7989C14.1982 -1.52588e-05 14.5221 0.32382 14.5221 0.722804V2.90724C14.5221 3.30659 14.1982 3.63042 13.7992 3.63042Z" fill="#3A1A52"/>
<path d="M15.8932 6.27645C16.1264 5.80505 15.5527 5.04563 14.6119 4.58022C13.6711 4.11481 12.7194 4.11966 12.4862 4.59106C12.253 5.06245 12.8266 5.82188 13.7675 6.28729C14.7083 6.7527 15.66 6.74784 15.8932 6.27645Z" fill="#F6F8FF"/>
<path d="M13.8544 6.97995C13.9252 6.8369 13.751 6.60641 13.4655 6.46514C13.1799 6.32388 12.891 6.32533 12.8203 6.46838C12.7495 6.61143 12.9236 6.84192 13.2092 6.98319C13.4948 7.12446 13.7836 7.12301 13.8544 6.97995Z" fill="#F6F8FF"/>
<path d="M13.799 -1.52588e-05H13.7928C13.7678 -1.52588e-05 13.7442 0.0047043 13.7202 0.0072456C13.6585 0.113617 13.6204 0.235963 13.6204 0.367748V2.55218C13.6204 2.95153 13.9442 3.275 14.3432 3.275H14.3494C14.3744 3.275 14.398 3.27028 14.422 3.26774C14.4837 3.16137 14.5218 3.03902 14.5218 2.90724V0.722804C14.5218 0.32382 14.198 -1.52588e-05 13.799 -1.52588e-05Z" fill="#662D91"/>
<path d="M14.3906 0.481334C14.4333 0.39507 14.3282 0.256023 14.1558 0.170765C13.9835 0.0855072 13.8091 0.0863234 13.7665 0.172587C13.7238 0.258851 13.8289 0.397896 14.0013 0.483155C14.1736 0.568413 14.3479 0.567598 14.3906 0.481334Z" fill="#F6F8FF"/>
<path d="M10.1689 -1.52588e-05H10.1627C10.1376 -1.52588e-05 10.114 0.0047043 10.0901 0.0072456C10.0284 0.113617 9.99023 0.235963 9.99023 0.367748V2.55218C9.99023 2.95153 10.3141 3.275 10.7131 3.275H10.7192C10.7443 3.275 10.7679 3.27028 10.7918 3.26774C10.8536 3.16137 10.8917 3.03902 10.8917 2.90724V0.722804C10.8917 0.32382 10.5678 -1.52588e-05 10.1689 -1.52588e-05Z" fill="#662D91"/>
<path d="M10.7605 0.481334C10.8031 0.39507 10.698 0.256023 10.5257 0.170765C10.3533 0.0855072 10.179 0.0863234 10.1363 0.172587C10.0937 0.258851 10.1988 0.397896 10.3711 0.483155C10.5435 0.568413 10.7178 0.567598 10.7605 0.481334Z" fill="#F6F8FF"/>
<path d="M6.53824 -1.52588e-05H6.53206C6.50701 -1.52588e-05 6.48342 0.0047043 6.45946 0.0072456C6.39774 0.113617 6.35962 0.235963 6.35962 0.367748V2.55218C6.35962 2.95153 6.68345 3.275 7.08244 3.275H7.08861C7.11366 3.275 7.13726 3.27028 7.16122 3.26774C7.22294 3.16137 7.26106 3.03902 7.26106 2.90724V0.722804C7.26106 0.32382 6.93722 -1.52588e-05 6.53824 -1.52588e-05Z" fill="#662D91"/>
<path d="M7.1301 0.481334C7.17278 0.39507 7.06766 0.256025 6.89531 0.170767C6.72296 0.0855084 6.54865 0.0863234 6.50598 0.172587C6.4633 0.258851 6.56843 0.397896 6.74077 0.483155C6.91312 0.568413 7.08743 0.567598 7.1301 0.481334Z" fill="#F6F8FF"/>
<path d="M2.90762 -1.52588e-05H2.90145C2.8764 -1.52588e-05 2.8528 0.0047043 2.82884 0.0072456C2.76712 0.113617 2.729 0.235963 2.729 0.367748V2.55218C2.729 2.95153 3.05284 3.275 3.45182 3.275H3.458C3.48305 3.275 3.50664 3.27028 3.5306 3.26774C3.59232 3.16137 3.63044 3.03902 3.63044 2.90724V0.722804C3.63044 0.32382 3.30661 -1.52588e-05 2.90762 -1.52588e-05Z" fill="#662D91"/>
<path d="M3.49998 0.481136C3.54265 0.394872 3.43753 0.255826 3.26518 0.170568C3.09283 0.0853101 2.91852 0.0861251 2.87585 0.172389C2.83318 0.258652 2.9383 0.397698 3.11065 0.482956C3.28299 0.568214 3.4573 0.567399 3.49998 0.481136Z" fill="#F6F8FF"/>
</svg>
