<svg width="30" height="31" viewBox="0 0 30 31" fill="none" xmlns="http://www.w3.org/2000/svg">
<path d="M30 15.9274C30 24.2117 23.2843 30.9274 15 30.9274C6.71573 30.9274 0 24.2117 0 15.9274C0 7.64316 6.71573 0.927429 15 0.927429C23.2843 0.927429 30 7.64316 30 15.9274Z" fill="#7280FF"/>
<path d="M21.5625 14.9899H15.9375V9.36493C15.9375 9.11629 15.8387 8.87783 15.6629 8.70202C15.4871 8.5262 15.2486 8.42743 15 8.42743C14.7514 8.42743 14.5129 8.5262 14.3371 8.70202C14.1613 8.87783 14.0625 9.11629 14.0625 9.36493V14.9899H8.4375C8.18886 14.9899 7.9504 15.0887 7.77459 15.2645C7.59877 15.4403 7.5 15.6788 7.5 15.9274C7.5 16.1761 7.59877 16.4145 7.77459 16.5903C7.9504 16.7662 8.18886 16.8649 8.4375 16.8649H14.0625V22.4899C14.0625 22.7386 14.1613 22.977 14.3371 23.1528C14.5129 23.3287 14.7514 23.4274 15 23.4274C15.2486 23.4274 15.4871 23.3287 15.6629 23.1528C15.8387 22.977 15.9375 22.7386 15.9375 22.4899V16.8649H21.5625C21.8111 16.8649 22.0496 16.7662 22.2254 16.5903C22.4012 16.4145 22.5 16.1761 22.5 15.9274C22.5 15.6788 22.4012 15.4403 22.2254 15.2645C22.0496 15.0887 21.8111 14.9899 21.5625 14.9899Z" fill="white"/>
</svg>
