<svg width="28" height="30" viewBox="0 0 28 30" fill="none" xmlns="http://www.w3.org/2000/svg">
<path d="M2.15385 27.8571H7V23.0357H2.15385V27.8571ZM8.07692 27.8571H13.4615V23.0357H8.07692V27.8571ZM2.15385 21.9643H7V16.6071H2.15385V21.9643ZM8.07692 21.9643H13.4615V16.6071H8.07692V21.9643ZM2.15385 15.5357H7V10.7143H2.15385V15.5357ZM14.5385 27.8571H19.9231V23.0357H14.5385V27.8571ZM8.07692 15.5357H13.4615V10.7143H8.07692V15.5357ZM21 27.8571H25.8462V23.0357H21V27.8571ZM14.5385 21.9643H19.9231V16.6071H14.5385V21.9643ZM8.61538 7.5V2.67857C8.61538 2.53348 8.5621 2.40792 8.45553 2.3019C8.34896 2.19587 8.22276 2.14286 8.07692 2.14286H7C6.85417 2.14286 6.72796 2.19587 6.62139 2.3019C6.51482 2.40792 6.46154 2.53348 6.46154 2.67857V7.5C6.46154 7.64509 6.51482 7.77065 6.62139 7.87667C6.72796 7.9827 6.85417 8.03571 7 8.03571H8.07692C8.22276 8.03571 8.34896 7.9827 8.45553 7.87667C8.5621 7.77065 8.61538 7.64509 8.61538 7.5ZM21 21.9643H25.8462V16.6071H21V21.9643ZM14.5385 15.5357H19.9231V10.7143H14.5385V15.5357ZM21 15.5357H25.8462V10.7143H21V15.5357ZM21.5385 7.5V2.67857C21.5385 2.53348 21.4852 2.40792 21.3786 2.3019C21.272 2.19587 21.1458 2.14286 21 2.14286H19.9231C19.7772 2.14286 19.651 2.19587 19.5445 2.3019C19.4379 2.40792 19.3846 2.53348 19.3846 2.67857V7.5C19.3846 7.64509 19.4379 7.77065 19.5445 7.87667C19.651 7.9827 19.7772 8.03571 19.9231 8.03571H21C21.1458 8.03571 21.272 7.9827 21.3786 7.87667C21.4852 7.77065 21.5385 7.64509 21.5385 7.5ZM28 6.42857V27.8571C28 28.4375 27.7869 28.9397 27.3606 29.3638C26.9343 29.7879 26.4295 30 25.8462 30H2.15385C1.57051 30 1.06571 29.7879 0.639423 29.3638C0.213141 28.9397 0 28.4375 0 27.8571V6.42857C0 5.84821 0.213141 5.34598 0.639423 4.92188C1.06571 4.49777 1.57051 4.28571 2.15385 4.28571H4.30769V2.67857C4.30769 1.94196 4.57131 1.31138 5.09856 0.78683C5.6258 0.262277 6.25962 0 7 0H8.07692C8.81731 0 9.45112 0.262277 9.97837 0.78683C10.5056 1.31138 10.7692 1.94196 10.7692 2.67857V4.28571H17.2308V2.67857C17.2308 1.94196 17.4944 1.31138 18.0216 0.78683C18.5489 0.262277 19.1827 0 19.9231 0H21C21.7404 0 22.3742 0.262277 22.9014 0.78683C23.4287 1.31138 23.6923 1.94196 23.6923 2.67857V4.28571H25.8462C26.4295 4.28571 26.9343 4.49777 27.3606 4.92188C27.7869 5.34598 28 5.84821 28 6.42857Z" fill="#B9BCD7"/>
</svg>
