<svg width="30" height="30" viewBox="0 0 30 30" fill="none" xmlns="http://www.w3.org/2000/svg">
<path d="M25.5185 4.41342C23.0691 1.94432 19.8363 0.408463 16.3774 0.0706219C12.9184 -0.267219 9.45021 0.614132 6.57059 2.56273C3.69098 4.51132 1.58043 7.40505 0.602818 10.745C-0.374795 14.085 -0.158211 17.6619 1.21523 20.8591C1.35838 21.1563 1.40535 21.4908 1.34959 21.816L0.0358935 28.1401C-0.0147192 28.3825 -0.00438396 28.6338 0.0659704 28.8713C0.136325 29.1088 0.264494 29.325 0.438958 29.5006C0.581978 29.6428 0.752265 29.7545 0.939555 29.829C1.12685 29.9035 1.32726 29.9393 1.52872 29.9342H1.82729L8.21661 28.6484C8.54135 28.6093 8.87065 28.6557 9.17202 28.783C12.3644 30.1584 15.936 30.3754 19.271 29.3963C22.606 28.4172 25.4954 26.3035 27.4411 23.4196C29.3868 20.5357 30.2668 17.0622 29.9295 13.5982C29.5921 10.1341 28.0586 6.8964 25.5932 4.44332L25.5185 4.41342ZM8.99288 16.4786C8.69763 16.4786 8.409 16.3909 8.16351 16.2266C7.91801 16.0623 7.72667 15.8288 7.61369 15.5557C7.5007 15.2825 7.47113 14.9819 7.52874 14.6918C7.58634 14.4018 7.72851 14.1354 7.93729 13.9263C8.14607 13.7173 8.41206 13.5749 8.70164 13.5172C8.99123 13.4595 9.29139 13.4891 9.56417 13.6023C9.83694 13.7154 10.0701 13.907 10.2341 14.1529C10.3982 14.3988 10.4857 14.6878 10.4857 14.9835C10.4857 15.38 10.3284 15.7603 10.0485 16.0407C9.76851 16.3211 9.38881 16.4786 8.99288 16.4786ZM14.9642 16.4786C14.669 16.4786 14.3803 16.3909 14.1348 16.2266C13.8893 16.0623 13.698 15.8288 13.585 15.5557C13.472 15.2825 13.4425 14.9819 13.5001 14.6918C13.5577 14.4018 13.6998 14.1354 13.9086 13.9263C14.1174 13.7173 14.3834 13.5749 14.673 13.5172C14.9626 13.4595 15.2627 13.4891 15.5355 13.6023C15.8083 13.7154 16.0414 13.907 16.2055 14.1529C16.3695 14.3988 16.457 14.6878 16.457 14.9835C16.457 15.38 16.2998 15.7603 16.0198 16.0407C15.7398 16.3211 15.3601 16.4786 14.9642 16.4786ZM20.9355 16.4786C20.6403 16.4786 20.3517 16.3909 20.1062 16.2266C19.8607 16.0623 19.6693 15.8288 19.5563 15.5557C19.4433 15.2825 19.4138 14.9819 19.4714 14.6918C19.529 14.4018 19.6712 14.1354 19.8799 13.9263C20.0887 13.7173 20.3547 13.5749 20.6443 13.5172C20.9339 13.4595 21.234 13.4891 21.5068 13.6023C21.7796 13.7154 22.0127 13.907 22.1768 14.1529C22.3408 14.3988 22.4284 14.6878 22.4284 14.9835C22.4284 15.38 22.2711 15.7603 21.9911 16.0407C21.7112 16.3211 21.3315 16.4786 20.9355 16.4786Z" fill="#7280ff"/>
</svg>
