<svg width="17" height="18" viewBox="0 0 17 18" fill="none" xmlns="http://www.w3.org/2000/svg">
<path d="M10.3478 2.60401V14.88H1.47826V2.60401H10.3478ZM11.8261 1.116H0V16.74H11.8261V1.116ZM2.58696 4.09201H9.23913V5.58001H2.58696V4.09201ZM2.58696 6.69601H9.23913V8.18402H2.58696V6.69601ZM2.58696 9.30002H9.23913V10.788H2.58696V9.30002ZM2.58696 11.904H9.23913V13.392H2.58696V11.904ZM14.0435 4.09201H17V14.508H14.0435V4.09201ZM15.524 0C14.7131 0 14.0435 0.656581 14.0435 1.46457V2.97601H17V1.46457C17 0.656581 16.3315 0 15.524 0ZM14.0206 15.624L15.514 18L17 15.624H14.0206Z" fill="#7280FF"/>
</svg>
