<svg width="18" height="18" viewBox="0 0 18 18" fill="none" xmlns="http://www.w3.org/2000/svg">
<path d="M9 6.3C7.72481 6.3013 6.49122 6.75382 5.5177 7.57745C4.54417 8.40107 3.89353 9.54265 3.681 10.8H0V12.6H1.8V18H3.6V12.6H14.4V18H16.2V12.6H18V10.8H14.319C14.1065 9.54265 13.4558 8.40107 12.4823 7.57745C11.5088 6.75382 10.2752 6.3013 9 6.3Z" fill="#7280FF"/>
<path d="M9.00005 5.4C10.4912 5.4 11.7 4.19117 11.7 2.7C11.7 1.20883 10.4912 0 9.00005 0C7.50888 0 6.30005 1.20883 6.30005 2.7C6.30005 4.19117 7.50888 5.4 9.00005 5.4Z" fill="#7280FF"/>
</svg>
