<svg width="37" height="30" viewBox="0 0 37 30" fill="none" xmlns="http://www.w3.org/2000/svg">
<path d="M31.719 17.2798V28.5035C31.719 28.9088 31.5737 29.2595 31.283 29.5557C30.9923 29.8519 30.648 30 30.2502 30H21.4376V21.021H15.5624V30H6.74976C6.35196 30 6.00772 29.8519 5.71702 29.5557C5.42633 29.2595 5.28098 28.9088 5.28098 28.5035V17.2798C5.28098 17.2642 5.2848 17.2408 5.29245 17.2097C5.3001 17.1785 5.30393 17.1551 5.30393 17.1395L18.5 6.05612L31.6961 17.1395C31.7114 17.1707 31.719 17.2175 31.719 17.2798ZM36.8368 15.6664L35.4139 17.3967C35.2915 17.537 35.1309 17.6228 34.932 17.6539H34.8631C34.6642 17.6539 34.5036 17.5994 34.3812 17.4903L18.5 3.99844L2.61881 17.4903C2.43522 17.615 2.25162 17.6695 2.06802 17.6539C1.86912 17.6228 1.70848 17.537 1.58608 17.3967L0.163198 15.6664C0.0407994 15.5105 -0.0127498 15.3274 0.00254997 15.1169C0.0178498 14.9065 0.101999 14.7389 0.254997 14.6142L16.7558 0.60795C17.2454 0.20265 17.8268 0 18.5 0C19.1732 0 19.7546 0.20265 20.2442 0.60795L25.8439 5.37802V0.818394C25.8439 0.600156 25.9128 0.420889 26.0504 0.280592C26.1881 0.140296 26.3641 0.0701481 26.5783 0.0701481H30.9846C31.1988 0.0701481 31.3748 0.140296 31.5125 0.280592C31.6502 0.420889 31.719 0.600156 31.719 0.818394V10.3585L36.745 14.6142C36.898 14.7389 36.9822 14.9065 36.9974 15.1169C37.0127 15.3274 36.9592 15.5105 36.8368 15.6664Z" fill="#B9BCD7"/>
</svg>
