<svg width="21" height="18" viewBox="0 0 21 18" fill="none" xmlns="http://www.w3.org/2000/svg">
<path fill-rule="evenodd" clip-rule="evenodd" d="M2.82692 1.63636C2.5056 1.63636 2.19744 1.76567 1.97024 1.99582C1.74303 2.22598 1.61538 2.53814 1.61538 2.86364V15.1364C1.61538 15.4619 1.74303 15.774 1.97024 16.0042C2.19744 16.2343 2.5056 16.3636 2.82692 16.3636H10.9038C11.2252 16.3636 11.5333 16.2343 11.7605 16.0042C11.9877 15.774 12.1154 15.4619 12.1154 15.1364V13.0909C12.1154 12.639 12.477 12.2727 12.9231 12.2727C13.3692 12.2727 13.7308 12.639 13.7308 13.0909V15.1364C13.7308 15.8958 13.4329 16.6242 12.9028 17.1613C12.3726 17.6983 11.6536 18 10.9038 18H2.82692C2.07718 18 1.35814 17.6983 0.827987 17.1613C0.297836 16.6242 0 15.8958 0 15.1364V2.86364C0 2.10415 0.297836 1.37578 0.827987 0.83874C1.35814 0.301704 2.07718 0 2.82692 0H10.5C11.2584 0 12.0361 0.303624 12.6279 0.773271C13.2165 1.24047 13.7308 1.96626 13.7308 2.86364V4.90909C13.7308 5.36096 13.3692 5.72727 12.9231 5.72727C12.477 5.72727 12.1154 5.36096 12.1154 4.90909V2.86364C12.1154 2.63141 11.9757 2.33448 11.6316 2.06135C11.2905 1.79067 10.8567 1.63636 10.5 1.63636H2.82692Z" fill="#B9BCD7"/>
<path fill-rule="evenodd" clip-rule="evenodd" d="M15.5828 4.33052C15.8982 4.011 16.4096 4.011 16.725 4.33052L20.7635 8.42143C21.0789 8.74095 21.0789 9.25899 20.7635 9.57851L16.725 13.6694C16.4096 13.9889 15.8982 13.9889 15.5828 13.6694C15.2673 13.3499 15.2673 12.8319 15.5828 12.5123L19.0501 8.99997L15.5828 5.48761C15.2673 5.16809 15.2673 4.65004 15.5828 4.33052Z" fill="#B9BCD7"/>
<path fill-rule="evenodd" clip-rule="evenodd" d="M5.65381 8.99999C5.65381 8.54812 6.01542 8.18181 6.4615 8.18181H19.3846C19.8307 8.18181 20.1923 8.54812 20.1923 8.99999C20.1923 9.45186 19.8307 9.81817 19.3846 9.81817H6.4615C6.01542 9.81817 5.65381 9.45186 5.65381 8.99999Z" fill="#B9BCD7"/>
</svg>
