<svg width="24" height="30" viewBox="0 0 24 30" fill="none" xmlns="http://www.w3.org/2000/svg">
<path d="M11.6667 13.3333C12.9852 13.3333 14.2742 12.9424 15.3705 12.2098C16.4668 11.4773 17.3213 10.4361 17.8259 9.2179C18.3305 7.99973 18.4625 6.65928 18.2053 5.36607C17.948 4.07286 17.3131 2.88498 16.3807 1.95263C15.4484 1.02027 14.2605 0.385336 12.9673 0.128101C11.6741 -0.129134 10.3336 0.00288854 9.11545 0.507473C7.89728 1.01206 6.85608 1.86654 6.12354 2.96287C5.391 4.0592 5 5.34813 5 6.66668C5 8.43479 5.70238 10.1305 6.95263 11.3807C8.20287 12.631 9.89857 13.3333 11.6667 13.3333ZM21.6667 30C22.1087 30 22.5326 29.8244 22.8452 29.5119C23.1578 29.1993 23.3334 28.7754 23.3334 28.3334C23.3334 25.2392 22.1042 22.2717 19.9163 20.0838C17.7283 17.8958 14.7609 16.6667 11.6667 16.6667C8.57248 16.6667 5.60502 17.8958 3.41709 20.0838C1.22916 22.2717 4.61071e-08 25.2392 0 28.3334C0 28.7754 0.175595 29.1993 0.488156 29.5119C0.800717 29.8244 1.22464 30 1.66667 30H21.6667Z" fill="#7280FF"/>
</svg>
