<svg width="18" height="18" viewBox="0 0 18 18" fill="none" xmlns="http://www.w3.org/2000/svg">
<path fill-rule="evenodd" clip-rule="evenodd" d="M8.438 0C7.816 0 7.312 0.504 7.312 1.125L7.177 2.07C7.14932 2.26331 7.07179 2.44608 6.95205 2.60034C6.83231 2.75461 6.67447 2.87504 6.49407 2.94981C6.31367 3.02457 6.11691 3.05109 5.92315 3.02675C5.72939 3.00241 5.54531 2.92806 5.389 2.811L4.625 2.238C4.52053 2.13353 4.39651 2.05066 4.26002 1.99413C4.12353 1.93759 3.97724 1.90849 3.8295 1.90849C3.68176 1.90849 3.53547 1.93759 3.39898 1.99413C3.26249 2.05066 3.13847 2.13353 3.034 2.238L2.238 3.034C1.798 3.474 1.798 4.185 2.238 4.624L2.811 5.389C2.92804 5.54524 3.00241 5.72925 3.0268 5.92294C3.05119 6.11662 3.02476 6.31333 2.95011 6.4937C2.87546 6.67408 2.75515 6.83193 2.60101 6.95174C2.44688 7.07154 2.26422 7.14917 2.071 7.177L1.125 7.313C0.504 7.313 0 7.816 0 8.437V9.563C0 10.183 0.504 10.687 1.125 10.687L2.07 10.823C2.26331 10.8507 2.44608 10.9282 2.60034 11.0479C2.75461 11.1677 2.87504 11.3255 2.94981 11.5059C3.02457 11.6863 3.05109 11.8831 3.02675 12.0768C3.00241 12.2706 2.92806 12.4547 2.811 12.611L2.238 13.375C1.798 13.815 1.798 14.527 2.238 14.966L3.034 15.762C3.474 16.202 4.185 16.202 4.624 15.762L5.389 15.189C5.54524 15.072 5.72925 14.9976 5.92294 14.9732C6.11662 14.9488 6.31333 14.9752 6.4937 15.0499C6.67408 15.1245 6.83193 15.2449 6.95174 15.399C7.07154 15.5531 7.14917 15.7358 7.177 15.929L7.313 16.875C7.313 17.496 7.816 18 8.437 18H9.563C10.183 18 10.687 17.496 10.687 16.875L10.823 15.93C10.8507 15.7367 10.9282 15.5539 11.0479 15.3997C11.1677 15.2454 11.3255 15.125 11.5059 15.0502C11.6863 14.9754 11.8831 14.9489 12.0768 14.9732C12.2706 14.9976 12.4547 15.0719 12.611 15.189L13.375 15.762C13.815 16.202 14.527 16.202 14.966 15.762L15.762 14.966C16.201 14.526 16.201 13.815 15.762 13.376L15.189 12.611C15.072 12.4548 14.9976 12.2708 14.9732 12.0771C14.9488 11.8834 14.9752 11.6867 15.0499 11.5063C15.1245 11.3259 15.2449 11.1681 15.399 11.0483C15.5531 10.9285 15.7358 10.8508 15.929 10.823L16.875 10.687C17.496 10.687 18 10.184 18 9.563V8.437C18 7.817 17.496 7.313 16.875 7.313L15.93 7.177C15.7367 7.14932 15.5539 7.07179 15.3997 6.95205C15.2454 6.83231 15.125 6.67447 15.0502 6.49407C14.9754 6.31367 14.9489 6.11691 14.9732 5.92315C14.9976 5.72939 15.0719 5.54531 15.189 5.389L15.762 4.625C16.201 4.185 16.201 3.473 15.762 3.034L14.966 2.238C14.7551 2.02732 14.4691 1.90899 14.171 1.90899C13.8729 1.90899 13.5869 2.02732 13.376 2.238L12.611 2.811C12.4548 2.92804 12.2708 3.00241 12.0771 3.0268C11.8834 3.05119 11.6867 3.02476 11.5063 2.95011C11.3259 2.87546 11.1681 2.75515 11.0483 2.60101C10.9285 2.44688 10.8508 2.26422 10.823 2.071L10.687 1.125C10.687 0.504 10.184 0 9.563 0H8.438ZM9 11.25C9.59674 11.25 10.169 11.0129 10.591 10.591C11.0129 10.169 11.25 9.59674 11.25 9C11.25 8.40326 11.0129 7.83097 10.591 7.40901C10.169 6.98705 9.59674 6.75 9 6.75C8.40326 6.75 7.83097 6.98705 7.40901 7.40901C6.98705 7.83097 6.75 8.40326 6.75 9C6.75 9.59674 6.98705 10.169 7.40901 10.591C7.83097 11.0129 8.40326 11.25 9 11.25Z" fill="#B9BCD7"/>
</svg>
